HIERARCHY
ROOT Hips
{
	OFFSET -3.958830 18.904000 13.208200
	CHANNELS 6 Xposition Yposition Zposition Zrotation Yrotation Xrotation 
	JOINT LHipJoint
	{
		OFFSET 0.000000 0.000000 0.000000
		CHANNELS 3 Zrotation Yrotation Xrotation
		JOINT LeftUpLeg
		{
			OFFSET 1.800000 -1.400000 0.085000
			CHANNELS 3 Zrotation Yrotation Xrotation
			JOINT LeftLeg
			{
				OFFSET 2.215000 -6.000000 0.000000
				CHANNELS 3 Zrotation Yrotation Xrotation
				JOINT LeftFoot
				{
					OFFSET 2.500000 -6.900000 0.000000
					CHANNELS 3 Zrotation Yrotation Xrotation
					JOINT LeftToeBase
					{
						OFFSET 0.200000 -0.500000 1.950000
						CHANNELS 3 Zrotation Yrotation Xrotation
						End Site
						{
							OFFSET 0.000000 0.000000 0.000000
						}
					}
				}
			}
		}
	}
	JOINT RHipJoint
	{
		OFFSET 0.000000 0.000000 0.000000
		CHANNELS 3 Zrotation Yrotation Xrotation
		JOINT RightUpLeg
		{
			OFFSET -1.800000 -1.400000 0.085000
			CHANNELS 3 Zrotation Yrotation Xrotation
			JOINT RightLeg
			{
				OFFSET -2.215000 -6.000000 0.000000
				CHANNELS 3 Zrotation Yrotation Xrotation
				JOINT RightFoot
				{
					OFFSET -2.500000 -6.900000 0.000000
					CHANNELS 3 Zrotation Yrotation Xrotation
					JOINT RightToeBase
					{
						OFFSET -0.200000 -0.500000 1.950000
						CHANNELS 3 Zrotation Yrotation Xrotation
						End Site
						{
							OFFSET 0.000000 0.000000 0.000000
						}
					}
				}
			}
		}
	}
	JOINT LowerBack
	{
		OFFSET 0.000000 0.000000 0.000000
		CHANNELS 3 Zrotation Yrotation Xrotation
		JOINT Spine
		{
			OFFSET -0.087000 1.940000 -0.288900
			CHANNELS 3 Zrotation Yrotation Xrotation
			JOINT Spine1
			{
				OFFSET 0.000000 1.950000 0.060000
				CHANNELS 3 Zrotation Yrotation Xrotation
				JOINT Neck
				{
					OFFSET 0.000000 0.000000 0.000000
					CHANNELS 3 Zrotation Yrotation Xrotation
					JOINT Neck1
					{
						OFFSET 0.000000 1.600000 0.340000
						CHANNELS 3 Zrotation Yrotation Xrotation
						JOINT Head
						{
							OFFSET 0.000000 1.667000 -0.240000
							CHANNELS 3 Zrotation Yrotation Xrotation
							End Site
							{
								OFFSET 0.000000 0.000000 0.000000
							}
						}
					}
				}
				JOINT LeftShoulder
				{
					OFFSET 0.000000 0.000000 0.000000
					CHANNELS 3 Zrotation Yrotation Xrotation
					JOINT LeftArm
					{
						OFFSET 2.700000 1.550000 -0.730000
						CHANNELS 3 Zrotation Yrotation Xrotation
						JOINT LeftForeArm
						{
							OFFSET 5.450000 0.000000 0.000000
							CHANNELS 3 Zrotation Yrotation Xrotation
							JOINT LeftHand
							{
								OFFSET 3.450000 0.000000 0.000000
								CHANNELS 3 Zrotation Yrotation Xrotation
								JOINT LeftHandIndex1
								{
									OFFSET 0.750000 0.000000 0.000000
									CHANNELS 3 Zrotation Yrotation Xrotation
									End Site
									{
										OFFSET 0.000000 0.000000 0.000000
									}
								}
							}
						}
					}
				}
				JOINT RightShoulder
				{
					OFFSET 0.000000 0.000000 0.000000
					CHANNELS 3 Zrotation Yrotation Xrotation
					JOINT RightArm
					{
						OFFSET -2.700000 1.550000 -0.730000
						CHANNELS 3 Zrotation Yrotation Xrotation
						JOINT RightForeArm
						{
							OFFSET -5.450000 0.000000 0.000000
							CHANNELS 3 Zrotation Yrotation Xrotation
							JOINT RightHand
							{
								OFFSET -3.450000 0.000000 0.000000
								CHANNELS 3 Zrotation Yrotation Xrotation
								JOINT RightHandIndex1
								{
									OFFSET -0.750000 0.000000 0.000000
									CHANNELS 3 Zrotation Yrotation Xrotation
									End Site
									{
										OFFSET 0.000000 0.000000 0.000000
									}
								}
							}
						}
					}
				}
			}
		}
	}
}
MOTION
Frames: 13
Frame Time: 0.016667
-14.224560 17.268010 -2.828120 -4.006039 -15.770517 -9.316907 -15.123333 12.887453 3.481521 5.325991 -2.321909 -15.079054 -5.885842 2.330512 -6.841503 -0.657365 3.259542 3.371104 0.573110 0.680750 0.554660 18.483398 -9.664519 3.173374 -6.559340 -4.351643 17.432540 11.318068 -6.157417 0.016243 -1.086308 -5.931928 2.069837 0.622430 0.120340 0.027430 -3.870014 -4.388735 -7.733520 11.395090 0.386137 14.048386 -2.985256 3.826366 22.231721 -5.993925 -5.743854 -18.704338 -20.421963 29.064651 27.910647 9.102630 23.728750 -9.481480 -3.307426 -34.895801 -0.884210 -2.275434 -35.284636 -3.811763 9.730468 -28.894005 -2.575297 -3.727761 3.390455 0.312320 0.053450 0.113970 0.015760 13.166145 29.135800 19.421130 -3.998733 -12.964638 1.870741 -9.923170 8.114901 -0.849212 2.484697 -1.594116 -0.277110 0.267740 -0.156030 -0.169500 
-14.215320 17.260100 -2.821150 -4.201741 -15.444510 -8.972502 -15.125204 12.853089 3.484989 5.231185 -2.371897 -15.258366 -5.850508 2.290205 -7.124061 -0.635461 3.241988 3.392654 0.565130 0.675750 0.565730 18.493759 -9.649993 3.156842 -6.365536 -4.371432 17.178953 11.410370 -6.137349 0.019528 -1.077255 -5.903552 2.088085 0.613760 0.125240 0.016950 -3.890300 -4.361917 -7.713369 11.755874 0.300904 13.733031 -3.107249 3.711011 21.921037 -5.927240 -5.773312 -18.518122 -20.632634 29.024351 28.018351 8.633670 23.886410 -9.236420 -2.840807 -34.402297 -0.746968 -3.088608 -36.077683 -3.186532 10.197182 -28.253852 -2.643114 -3.733151 3.345781 0.298960 0.059330 0.112000 0.017310 12.573671 28.810989 19.064196 -3.269191 -12.509378 1.468986 -10.843589 10.061030 -0.976463 2.469737 -1.621150 -0.278710 0.273930 -0.170410 -0.165850 
-14.208230 17.257120 -2.810380 -4.384451 -15.131414 -8.529425 -15.145286 12.821557 3.513570 5.292383 -2.462258 -15.487093 -6.076551 2.218372 -7.548688 -0.632071 3.248191 3.381062 0.593090 0.710330 0.573990 18.488429 -9.600606 3.123077 -6.213779 -4.392765 16.842340 11.598534 -6.132440 0.069928 -1.076872 -5.879228 2.094025 0.633810 0.108310 0.019460 -3.862588 -4.416727 -7.702847 11.904583 0.266955 13.189797 -2.841201 3.534502 21.611506 -6.039355 -5.786958 -18.339017 -20.876025 29.205502 28.137179 8.662420 23.967370 -9.258060 -2.237683 -33.543338 -0.387814 -4.645957 -37.189085 -2.170717 11.333961 -27.448414 -2.949307 -3.718791 3.322282 0.300410 0.053100 0.120300 0.029220 12.222317 28.143391 18.628379 -2.576614 -11.704118 1.249582 -11.941845 9.825190 -1.062620 2.483226 -1.639698 -0.269240 0.259830 -0.189430 -0.165710 
-14.199170 17.256990 -2.805570 -4.586667 -14.881363 -8.451824 -15.123855 12.790121 3.529967 5.220715 -2.513696 -15.345647 -5.790040 2.149483 -8.052068 -0.613517 3.255556 3.395321 0.557360 0.665670 0.565360 18.513872 -9.621492 3.104387 -6.127638 -4.429935 16.651272 11.573161 -6.182512 0.341992 -1.058030 -5.866414 2.109946 0.604210 0.122450 0.012950 -3.935177 -4.331125 -7.695571 12.368951 -0.077861 13.099541 -3.722930 3.318762 21.445228 -5.600221 -5.548266 -18.464031 -20.264063 29.220436 28.707919 8.303140 24.478560 -8.686250 -3.201557 -34.065252 -0.584258 -3.670974 -36.522492 -2.657206 10.381501 -27.431620 -2.583434 -3.737057 3.325657 0.297390 0.066090 0.107160 0.022030 12.298746 28.221528 18.930990 -1.489785 -10.618925 1.339778 -11.968524 6.020803 -0.895492 2.580694 -1.568474 -0.284170 0.256930 -0.183510 -0.170700 
-14.193480 17.254230 -2.804510 -4.706753 -14.758093 -8.447925 -15.118560 12.792941 3.549436 5.317046 -2.508353 -15.293277 -5.756847 2.157590 -8.296147 -0.582978 3.290577 3.412554 0.473600 0.569200 0.539730 18.514648 -9.631055 3.095993 -6.041851 -4.461899 16.533371 11.567683 -6.241667 0.577146 -1.022604 -5.842185 2.142398 0.543470 0.159160 -0.009110 -3.941315 -4.308104 -7.718861 12.499964 -0.297731 13.184601 -4.059043 3.119321 21.261072 -5.109569 -5.361667 -18.739881 -20.128668 29.449344 29.639005 7.667210 25.272790 -7.679430 -3.602999 -34.352791 -0.408032 -3.134604 -35.857176 -2.973961 10.073510 -27.309941 -2.419945 -3.772049 3.274302 0.291750 0.089950 0.080740 0.000610 11.835536 28.457232 19.054484 -0.530609 -9.048801 1.085578 -12.262131 2.882467 -0.734827 2.686086 -1.476036 -0.319580 0.274580 -0.157420 -0.176790 
-14.191710 17.248430 -2.806270 -4.452958 -14.837245 -8.495084 -15.139364 12.849189 3.569009 5.145532 -2.518812 -15.256420 -5.689093 2.177266 -8.293183 -0.578308 3.309747 3.422294 0.411960 0.493320 0.512950 18.483224 -9.616015 3.090802 -6.242237 -4.343088 16.406088 11.508020 -6.262761 0.706246 -0.985446 -5.830419 2.163448 0.503690 0.188160 -0.021460 -3.856604 -4.412610 -7.761679 11.815603 -0.207077 13.214893 -3.800837 3.104297 21.299196 -4.905866 -5.169654 -19.026697 -19.876303 29.843105 30.332136 7.238880 26.154480 -6.633470 -3.772588 -34.722089 -0.129745 -2.735741 -35.042048 -3.363518 10.233826 -27.336286 -2.459390 -3.803177 3.261109 0.287950 0.114600 0.050980 -0.013870 11.678016 28.886166 19.050221 0.032066 -7.305985 0.607510 -13.198856 -0.883771 -0.536130 2.802904 -1.431560 -0.351700 0.277070 -0.131980 -0.188140 
-14.191990 17.246150 -2.803990 -4.384587 -14.810850 -8.491716 -15.150129 12.853567 3.588889 5.290671 -2.511555 -15.203048 -5.870304 2.177928 -8.440612 -0.561341 3.335641 3.415267 0.395490 0.477980 0.505520 18.470204 -9.600080 3.087312 -6.266836 -4.330405 16.378259 11.532955 -6.266172 0.695502 -0.977684 -5.822411 2.169885 0.491870 0.191200 -0.027100 -3.820167 -4.446421 -7.787608 11.544890 -0.082886 13.151607 -3.659123 3.164082 21.279336 -4.839250 -5.053743 -19.128527 -19.735349 30.090402 30.778676 7.260100 26.555840 -6.293040 -3.917623 -34.851679 0.067670 -2.761292 -34.835099 -3.521131 10.550036 -27.613909 -2.575260 -3.804882 3.257630 0.286060 0.116990 0.047690 -0.017600 11.711896 29.031899 18.984957 0.609985 -6.673004 0.263863 -14.152701 -2.530477 -0.406720 2.861778 -1.433976 -0.356630 0.274510 -0.129450 -0.188630 
-14.185960 17.244650 -2.800590 -4.513916 -14.484084 -8.547589 -15.143140 12.864189 3.586248 5.228287 -2.516920 -15.228000 -5.828823 2.186346 -8.319961 -0.553526 3.307689 3.424784 0.400260 0.479840 0.511300 18.474663 -9.607009 3.099569 -6.077252 -4.403909 16.496704 11.400236 -6.254316 0.696744 -0.986814 -5.813344 2.171923 0.484730 0.180270 -0.029500 -3.832649 -4.446476 -7.797171 11.693510 -0.175445 13.323863 -3.654902 3.074158 21.208887 -4.809339 -5.042255 -19.327628 -19.965630 30.210027 30.909774 7.422040 26.597990 -6.257570 -3.824382 -35.007172 0.067760 -2.511140 -34.582567 -3.717627 10.330960 -27.956757 -2.525022 -3.779230 3.277576 0.294150 0.103510 0.055880 -0.015270 11.614259 29.124812 19.139399 1.144641 -7.151499 0.138772 -14.831118 -2.549064 -0.368999 2.877169 -1.451382 -0.351320 0.267680 -0.138340 -0.187800 
-14.183270 17.243160 -2.799610 -4.638624 -14.309782 -8.745412 -15.133392 12.871369 3.579913 5.403832 -2.453963 -15.103383 -5.959778 2.230022 -8.152242 -0.543317 3.302962 3.426921 0.407640 0.493990 0.520000 18.480892 -9.623593 3.105673 -5.872014 -4.507209 16.664235 11.280430 -6.282993 0.899036 -0.995820 -5.809010 2.179746 0.487380 0.166230 -0.043780 -3.851563 -4.425693 -7.799333 11.849323 -0.269979 13.581853 -3.683738 2.993921 21.369087 -4.808068 -5.029659 -19.546737 -20.155778 30.261385 30.982348 7.402720 26.667820 -6.490420 -3.469920 -35.099554 0.126946 -2.195364 -34.141231 -4.002887 10.310032 -28.219933 -2.525291 -3.751234 3.278469 0.300750 0.090250 0.066230 -0.012000 11.280449 29.157068 19.242012 1.651844 -7.622574 0.056554 -15.417816 -1.607354 -0.438549 2.865613 -1.465759 -0.350730 0.272300 -0.153720 -0.187590 
-14.178150 17.235770 -2.794480 -4.624506 -14.208708 -8.656327 -15.135275 12.868603 3.566168 5.246115 -2.473127 -15.178149 -5.834407 2.219765 -8.116207 -0.556741 3.285912 3.440723 0.419380 0.515190 0.517700 18.486033 -9.623267 3.092447 -5.768046 -4.499801 16.572257 11.091587 -6.253860 1.058970 -0.989316 -5.801175 2.188111 0.508700 0.180160 -0.053340 -3.859200 -4.431995 -7.762737 11.903647 -0.219247 13.339582 -3.617341 3.039246 21.411911 -5.082049 -5.150308 -19.394914 -20.218737 30.024335 30.302681 7.617620 26.214410 -6.546050 -2.940924 -34.668672 0.132835 -2.377680 -34.398997 -3.732379 10.319403 -28.343675 -2.525640 -3.747282 3.267234 0.290120 0.096580 0.057840 -0.000880 11.269507 28.783117 19.115645 1.669780 -8.370563 0.123132 -15.908744 0.395421 -0.633815 2.805064 -1.502497 -0.356680 0.291960 -0.160630 -0.179370 
-14.173950 17.231120 -2.790320 -4.558777 -14.305011 -8.500073 -15.135549 12.850231 3.570668 5.159698 -2.507636 -15.266661 -5.926672 2.198705 -8.192035 -0.562761 3.286713 3.444134 0.440810 0.539920 0.525980 18.488854 -9.631293 3.072233 -5.916638 -4.407417 16.310807 11.137633 -6.264343 1.258675 -0.989182 -5.791357 2.188275 0.525690 0.185800 -0.049270 -3.866957 -4.404742 -7.739397 11.943404 -0.068908 13.132227 -3.623525 3.224024 21.304155 -5.246839 -5.302564 -19.198851 -20.308902 29.688867 29.745020 7.785890 25.638530 -6.862020 -2.807057 -34.243175 0.121972 -2.678951 -34.837512 -3.416787 10.554787 -28.353894 -2.599115 -3.746201 3.253254 0.287110 0.096400 0.059980 0.008530 11.457598 28.529290 19.023966 1.502150 -8.879283 0.219120 -15.989084 1.519596 -0.737752 2.767711 -1.523601 -0.351260 0.302510 -0.168240 -0.171740 
-14.167140 17.227620 -2.785570 -4.576577 -14.275315 -8.419888 -15.139819 12.829431 3.579923 5.114387 -2.536693 -15.314517 -6.002310 2.171296 -8.362950 -0.541920 3.268655 3.449675 0.451790 0.564390 0.521000 18.488386 -9.625444 3.064787 -5.971571 -4.395856 16.238366 11.264212 -6.263043 1.247912 -0.988516 -5.794677 2.193961 0.536220 0.177240 -0.055880 -3.863039 -4.389386 -7.735020 12.002338 0.005153 13.061291 -3.650305 3.336510 21.326752 -5.209213 -5.391128 -19.205045 -20.481152 29.574076 29.434210 7.798570 25.478780 -6.712150 -2.456822 -33.879813 0.209321 -2.944473 -35.040834 -3.297793 10.928339 -28.483164 -2.706142 -3.729663 3.259088 0.271830 0.093240 0.062060 0.019640 11.060654 28.339639 19.047614 1.638249 -9.509439 0.424468 -15.444197 2.810910 -0.816943 2.736864 -1.537461 -0.339650 0.295340 -0.185380 -0.161880 
-14.151060 17.228020 -2.781830 -4.848871 -14.188671 -8.423484 -15.115731 12.775042 3.559620 5.202483 -2.508963 -15.204641 -5.984389 2.154474 -8.459723 -0.549728 3.271650 3.451989 0.493540 0.620460 0.537060 18.521856 -9.646428 3.069707 -5.905015 -4.455721 16.335953 11.374157 -6.252882 1.112672 -1.011171 -5.824902 2.183948 0.572670 0.177450 -0.049670 -3.953751 -4.280870 -7.695049 12.702578 -0.083574 13.138203 -3.783149 3.353198 21.622812 -5.469956 -5.633344 -19.084129 -20.859063 29.269281 28.441551 7.728180 24.911900 -7.348780 -2.153593 -33.766830 -0.026005 -3.105229 -35.421357 -3.251532 11.287503 -28.202334 -2.843216 -3.730769 3.256017 0.264080 0.095320 0.072690 0.038730 11.190538 28.142442 19.143456 0.138470 -10.936151 1.094302 -13.376254 4.800825 -0.886706 2.657844 -1.539273 -0.326880 0.308810 -0.206880 -0.150330 
